<svg xmlns="http://www.w3.org/2000/svg" width="292" height="230" viewBox="-19.34 -83.00 292.39 230.22" role="img" aria-label="the Signal">
  <g fill-rule="nonzero">
  <g transform="translate(58.18,0.00) scale(0.10304,-0.10304)" fill="#195750"><path d="M171 -1Q160 1 147.0 12.5Q134 24 123.5 38.5Q113 53 110 63Q110 65 107.5 68.0Q105 71 105 71Q101 74 100.5 97.5Q100 121 103.0 150.0Q106 179 110 196Q115 212 125.0 239.5Q135 267 142 289L169 347L129 358Q122 360 117.5 366.0Q113 372 113 376Q113 384 122.0 399.0Q131 414 135 414Q140 413 153.5 413.0Q167 413 180.0 414.0Q193 415 196 416Q200 418 204.0 421.5Q208 425 210 432Q215 443 219.0 449.0Q223 455 230 467Q237 480 241.5 489.0Q246 498 256 514Q261 521 267.0 531.0Q273 541 282 548Q291 556 311.5 559.5Q332 563 347 550Q355 540 356.0 531.0Q357 522 348 508Q340 491 329.5 477.5Q319 464 310 447Q294 425 304.0 422.0Q314 419 360 426Q389 431 402.0 420.0Q415 409 417 392Q420 368 412.0 363.0Q404 358 366 358Q342 354 325.0 353.5Q308 353 300 353Q287 352 283.0 352.0Q279 352 271 350Q263 348 259.5 343.5Q256 339 252 331Q248 327 240.0 310.0Q232 293 220 273Q206 231 196.5 192.5Q187 154 180 116Q177 97 181.5 88.5Q186 80 207 78Q218 77 239.0 78.5Q260 80 274 84Q285 89 297.0 94.5Q309 100 319 106Q328 111 337.0 116.5Q346 122 346 122Q351 130 360.5 119.5Q370 109 374 97Q374 85 369.0 68.5Q364 52 332 34Q287 6 242.0 0.0Q197 -6 171 -1Z"/></g>
  <g transform="translate(92.29,0.00) scale(0.10304,-0.10304)" fill="#195750"><path d="M139 38Q132 37 123.5 43.5Q115 50 108 55Q98 67 94.0 76.0Q90 85 90.0 96.0Q90 107 92 122Q97 138 104.0 165.0Q111 192 121 223Q123 235 128.5 251.5Q134 268 140.0 283.5Q146 299 149 307Q156 332 163.5 355.0Q171 378 182.0 408.0Q193 438 209 484Q231 544 242.0 574.0Q253 604 258.0 617.0Q263 630 265 638Q265 646 276.5 653.5Q288 661 297 661Q311 660 324.0 644.5Q337 629 342.0 607.5Q347 586 335 566Q319 530 303.5 485.5Q288 441 273.0 397.0Q258 353 243 316Q242 311 236.5 299.0Q231 287 227 279Q223 271 219.5 264.0Q216 257 216 257Q215 251 212.0 240.0Q209 229 206 221Q205 216 203.0 208.0Q201 200 200 192Q205 198 214.0 206.5Q223 215 237 228Q253 242 265.0 252.0Q277 262 289 270Q300 278 309.5 285.0Q319 292 319 292Q321 295 323.5 299.0Q326 303 329 304Q331 306 336.0 309.5Q341 313 346 317Q355 323 365.0 327.0Q375 331 386.0 333.0Q397 335 407 335Q419 335 432.0 325.5Q445 316 456 299Q466 286 468.5 268.5Q471 251 469 222Q469 214 464.5 192.0Q460 170 458 159L449 125H457Q468 129 478.5 126.0Q489 123 489 123Q494 120 498.5 116.0Q503 112 507 110Q513 102 505.0 87.0Q497 72 487 66Q463 50 444.5 46.0Q426 42 406 53Q387 66 380.5 84.0Q374 102 375 133Q379 177 380.0 196.5Q381 216 370 216Q358 216 337.5 204.5Q317 193 292.0 173.5Q267 154 242.5 130.5Q218 107 199 83Q187 68 173.0 53.5Q159 39 139 38Z"/></g>
  <g transform="translate(141.02,0.00) scale(0.10304,-0.10304)" fill="#195750"><path d="M293 20Q263 3 229.5 0.5Q196 -2 167.0 9.5Q138 21 120 44Q110 57 101.0 85.5Q92 114 98 163Q104 209 126.5 256.0Q149 303 182.0 339.0Q215 375 254 388Q268 393 282.5 395.5Q297 398 321 396Q344 393 362.0 384.5Q380 376 388 366Q404 350 409.0 335.0Q414 320 413 306Q408 274 384.5 237.0Q361 200 319 182Q302 175 279.0 173.0Q256 171 216 179Q192 184 184.5 174.0Q177 164 178 135Q180 117 186.5 103.5Q193 90 211 85Q234 81 244.0 84.5Q254 88 269 95Q277 100 284.5 106.0Q292 112 299.5 118.0Q307 124 312 127Q317 131 322.0 132.0Q327 133 332 133Q343 132 353.0 121.0Q363 110 366 100Q366 92 356.0 77.5Q346 63 329.5 47.5Q313 32 293 20ZM280 243Q287 246 300.5 257.0Q314 268 325.0 280.5Q336 293 336 300Q336 311 321.5 319.0Q307 327 284 322Q276 320 265.0 311.0Q254 302 243.0 290.5Q232 279 224.0 268.5Q216 258 213 252Q217 247 229.0 244.0Q241 241 255.5 241.0Q270 241 280 243Z"/></g>
  <g transform="translate(0.00,104.88) scale(0.04492,-0.04492)" fill="#1D1E26"><path d="M621 -23Q568 -23 507.5 -15.5Q447 -8 387.0 8.0Q327 24 271.0 50.0Q215 76 170.5 113.5Q126 151 97.0 201.0Q68 251 63 315V323Q63 359 79.5 387.5Q96 416 123.0 435.5Q150 455 183.5 465.0Q217 475 250 475Q313 475 353.5 441.5Q394 408 396 342Q396 273 418.0 224.0Q440 175 475.5 143.5Q511 112 556.5 97.5Q602 83 649 83H659Q736 85 815 134Q894 182 910 279L911 295Q911 328 897.0 357.0Q883 386 858.5 413.0Q834 440 799.5 465.0Q765 490 723 514Q681 538 636.0 562.0Q591 586 542 609Q484 638 426.0 668.0Q368 698 314.5 730.5Q261 763 215.0 800.0Q169 837 134.5 878.5Q100 920 80.5 967.5Q61 1015 61 1070Q61 1138 85.5 1190.5Q110 1243 151.0 1283.0Q192 1323 246.0 1351.0Q300 1379 359.5 1396.5Q419 1414 480.5 1422.0Q542 1430 597 1430Q650 1430 711.0 1423.0Q772 1416 832.0 1399.5Q892 1383 948.5 1357.0Q1005 1331 1049.0 1293.5Q1093 1256 1122.0 1205.5Q1151 1155 1156 1091V1083Q1156 1047 1139.5 1019.0Q1123 991 1096.0 971.5Q1069 952 1035.5 941.5Q1002 931 969 931Q907 931 866.0 965.0Q825 999 823 1064Q823 1133 801.0 1182.0Q779 1231 743.5 1262.5Q708 1294 662.5 1308.5Q617 1323 570 1323H560Q484 1322 405 1273Q326 1225 309 1127L308 1111Q308 1046 360.0 993.0Q412 940 496 893Q538 869 583.0 845.0Q628 821 677 797Q763 754 849.0 707.5Q935 661 1003.5 606.0Q1072 551 1115.0 485.0Q1158 419 1158 336Q1158 268 1133.5 215.0Q1109 162 1068.0 122.5Q1027 83 973.0 55.0Q919 27 859.0 10.0Q799 -7 738.0 -15.0Q677 -23 621 -23Z"/></g>
  <g transform="translate(55.21,104.88) scale(0.04492,-0.04492)" fill="#1D1E26"><path d="M281 1111Q251 1111 225.0 1122.0Q199 1133 179.5 1152.5Q160 1172 149.0 1198.0Q138 1224 138 1254Q138 1284 149.0 1310.0Q160 1336 179.5 1355.5Q199 1375 225.0 1386.0Q251 1397 281 1397Q311 1397 337.0 1386.0Q363 1375 382.5 1355.5Q402 1336 413.0 1310.0Q424 1284 424 1254Q424 1224 413.0 1198.0Q402 1172 382.5 1152.5Q363 1133 337.0 1122.0Q311 1111 281 1111ZM113 1Q97 1 85.0 13.0Q73 25 73 41Q73 54 80.0 60.0Q87 66 98 71Q130 86 147.5 116.5Q165 147 173.5 184.0Q182 221 184.0 259.0Q186 297 186 327L187 390Q188 416 188.5 445.0Q189 474 189 506Q189 545 187.5 585.5Q186 626 182.0 665.0Q178 704 170.5 740.5Q163 777 152 808Q130 869 84 895Q78 898 69.5 900.0Q61 902 53.5 906.0Q46 910 40.5 916.0Q35 922 34 934Q34 945 40.5 953.5Q47 962 61 962Q133 970 181.0 977.5Q229 985 254 993Q292 1005 335 1005Q353 1005 370.5 999.0Q388 993 401.5 981.5Q415 970 423.5 954.0Q432 938 432 917Q417 811 412.5 707.5Q408 604 408 499L409 327Q409 299 411.0 260.0Q413 221 422.0 183.5Q431 146 450.0 115.0Q469 84 502 71Q513 66 520.5 60.0Q528 54 528 41Q528 25 516.5 13.0Q505 1 488 1Z"/></g>
  <g transform="translate(79.15,104.88) scale(0.04492,-0.04492)" fill="#1D1E26"><path d="M695 973Q761 945 815.0 900.0Q869 855 907.5 797.5Q946 740 966.5 673.0Q987 606 987 534Q987 461 966.0 393.5Q945 326 907.0 269.0Q869 212 814.5 167.5Q760 123 693 94Q814 51 872 -33Q930 -115 930 -207Q930 -297 880.5 -378.0Q831 -459 737 -512Q643 -564 508 -564Q457 -564 408.5 -553.5Q360 -543 316.5 -521.0Q273 -499 237.0 -465.5Q201 -432 176 -386Q136 -313 136 -238Q136 -177 159.5 -128.0Q183 -79 223.0 -45.0Q263 -11 315.0 7.0Q367 25 424 25Q468 25 509.5 13.5Q551 2 583.5 -21.0Q616 -44 636.0 -79.0Q656 -114 656 -160V-164Q656 -184 647.0 -199.5Q638 -215 623.0 -226.0Q608 -237 590.0 -242.5Q572 -248 554 -248Q532 -248 512.5 -238.5Q493 -229 482 -209V-198Q482 -133 439 -96Q396 -57 343 -57Q336 -57 330.0 -57.5Q324 -58 318 -59Q291 -65 271.0 -80.0Q251 -95 237.0 -117.0Q223 -139 216.0 -165.5Q209 -192 209 -222Q209 -276 235.0 -330.0Q261 -384 315 -420Q370 -455 454 -455Q510 -455 559.0 -436.5Q608 -418 645.0 -385.0Q682 -352 703.5 -305.0Q725 -258 725 -201Q725 -153 707.0 -106.5Q689 -60 652.5 -23.5Q616 13 560.5 35.5Q505 58 430 58H425Q379 57 335.5 46.0Q292 35 254.0 13.5Q216 -8 185.0 -40.0Q154 -72 133 -114Q128 -119 121 -119Q108 -119 93.5 -111.0Q79 -103 79 -93Q79 -90 80 -89Q109 -17 168.5 31.0Q228 79 307 104Q244 134 193.5 179.0Q143 224 107.5 279.5Q72 335 53.0 400.0Q34 465 34 534Q34 633 71.5 720.0Q109 807 173.5 871.0Q238 935 325.0 972.0Q412 1009 510 1009Q575 1009 633 994Q657 1053 700.0 1099.5Q743 1146 798.0 1178.0Q853 1210 915.0 1227.5Q977 1245 1038 1245Q1062 1245 1085.5 1242.0Q1109 1239 1132 1234Q1154 1226 1163.5 1205.5Q1173 1185 1173 1159Q1173 1140 1166.5 1113.5Q1160 1087 1147.5 1063.0Q1135 1039 1117.0 1022.5Q1099 1006 1076 1006Q1066 1006 1057 1010Q1000 1033 943.5 1050.0Q887 1067 836 1067Q732 1067 695 973ZM510 140Q606 140 673 255Q740 370 740 534Q740 698 673 813Q606 928 510 928Q415 928 348 813Q280 697 280 534Q280 371 348 255Q415 140 510 140Z"/></g>
  <g transform="translate(129.82,104.88) scale(0.04492,-0.04492)" fill="#1D1E26"><path d="M728 1Q712 1 700.0 13.0Q688 25 688 41Q688 54 695.0 60.0Q702 66 713 71Q746 86 763.5 116.5Q781 147 789.5 184.0Q798 221 799.5 259.0Q801 297 801 327V594Q800 633 794.0 678.5Q788 724 770.5 762.0Q753 800 722.0 825.5Q691 851 641 851H636Q557 843 508 772Q488 742 470.0 704.5Q452 667 438.5 626.0Q425 585 417.5 544.0Q410 503 410 467V327Q410 298 412.0 259.5Q414 221 423.0 183.5Q432 146 450.5 115.5Q469 85 502 71Q514 66 521.0 60.0Q528 54 528 41Q528 25 516.5 13.0Q505 1 488 1H114Q98 1 86.0 13.0Q74 25 74 41Q74 54 81.0 60.0Q88 66 99 71Q132 86 149.5 116.5Q167 147 175.5 184.0Q184 221 185.5 259.0Q187 297 187 327V594Q186 629 181.5 677.0Q177 725 163.5 771.5Q150 818 125.5 854.5Q101 891 60 902Q45 906 40.0 913.0Q35 920 34 937Q34 946 38.5 953.5Q43 961 53 962Q198 977 251 993Q293 1005 336 1005Q409 1005 410 917V811Q470 901 556.5 953.0Q643 1005 745 1005Q836 1005 891.0 968.0Q946 931 975.5 872.5Q1005 814 1014.5 740.5Q1024 667 1024 594V327Q1024 299 1026.0 260.0Q1028 221 1037.0 183.5Q1046 146 1065.0 115.0Q1084 84 1117 71Q1128 66 1135.5 60.0Q1143 54 1143 41Q1143 25 1131.5 13.0Q1120 1 1103 1Z"/></g>
  <g transform="translate(181.39,104.88) scale(0.04492,-0.04492)" fill="#1D1E26"><path d="M775 -10Q757 -10 740.0 -4.0Q723 2 709.5 13.0Q696 24 687.0 40.5Q678 57 676 78Q682 129 685 180Q653 131 618.5 95.5Q584 60 543.0 36.5Q502 13 453.5 1.5Q405 -10 346 -10Q274 -10 220.5 11.0Q167 32 131.5 66.5Q96 101 78.5 146.5Q61 192 61 240Q61 318 104.5 391.0Q148 464 236 512Q274 530 315.5 545.0Q357 560 405 571Q456 584 505.0 600.0Q554 616 592.0 639.0Q630 662 653.5 695.5Q677 729 677 777Q677 858 629.0 897.0Q581 936 501 936Q430 932 401 886Q387 863 376.0 837.5Q365 812 358 783Q351 756 342.0 731.0Q333 706 318.5 686.5Q304 667 283.0 655.0Q262 643 229 643Q199 643 174.5 655.0Q150 667 132.0 686.5Q114 706 104.0 732.5Q94 759 94 787Q94 843 128.0 884.5Q162 926 219.5 953.0Q277 980 353.0 993.5Q429 1007 513 1007Q644 1007 749 966Q801 946 832.5 914.0Q864 882 881.0 842.5Q898 803 903.5 756.5Q909 710 909 660L908 520Q908 477 909.5 430.5Q911 384 915.5 336.5Q920 289 929.0 243.5Q938 198 953 158Q982 81 1039 65Q1050 62 1056.0 52.0Q1062 42 1062 32Q1062 21 1056.0 13.0Q1050 5 1038 5L988 6Q936 6 902.5 2.5Q869 -1 845 -4Q812 -10 775 -10ZM450 147Q521 153 564.5 190.0Q608 227 631.5 280.5Q655 334 663.0 397.0Q671 460 671 518Q671 531 671.0 543.0Q671 555 670 566Q609 515 557.5 491.0Q506 467 458 452Q442 447 426.5 441.5Q411 436 395 430Q341 407 316.0 369.0Q291 331 291 289Q291 258 302.5 232.0Q314 206 334.0 187.0Q354 168 381.0 157.5Q408 147 438 147Z"/></g>
  <g transform="translate(230.00,104.88) scale(0.04492,-0.04492)" fill="#1D1E26"><path d="M99 1Q83 1 71.0 13.0Q59 25 59 41Q59 54 66.0 60.0Q73 66 84 71Q116 86 133.5 116.5Q151 147 159.5 184.0Q168 221 170.0 259.0Q172 297 172 327Q172 347 175 407Q179 480 181.0 567.5Q183 655 183 760Q183 815 182.0 875.5Q181 936 177.5 997.0Q174 1058 166.5 1117.5Q159 1177 146 1230Q123 1320 84 1342Q78 1345 69.5 1347.0Q61 1349 53.5 1353.0Q46 1357 40.5 1363.0Q35 1369 34 1381Q34 1392 40.5 1400.5Q47 1409 62 1409Q207 1426 251 1440Q296 1452 326 1452Q344 1452 361.5 1446.0Q379 1440 392.5 1428.5Q406 1417 414.5 1401.0Q423 1385 423 1364Q410 1270 404.0 1146.5Q398 1023 398 867Q398 713 401 564Q404 434 404 329Q404 298 406.0 259.5Q408 221 417.0 184.0Q426 147 444.5 116.5Q463 86 497 71Q508 66 515.5 60.0Q523 54 523 41Q523 25 511.5 13.0Q500 1 483 1Z"/></g>
  </g>
  <path d="M0.00 121.44 Q18.12 115.00 36.25 121.44 Q54.37 127.88 72.49 121.44 Q90.61 115.00 108.74 121.44 Q126.86 127.88 144.98 121.44 Q163.10 115.00 181.23 121.44 Q199.35 127.88 217.47 121.44 Q235.60 115.00 253.72 121.44" fill="none" stroke="#195750" stroke-width="5.34" stroke-linecap="round"/>
</svg>
